<mxfile host="app.diagrams.net" modified="2024-05-06T15:42:07.631Z" agent="Mozilla/5.0 (Windows NT 10.0; Win64; x64) AppleWebKit/537.36 (KHTML, like Gecko) Chrome/123.0.0.0 Safari/537.36" etag="T4BxSZ3JwjwBTwmoBU6s" version="24.3.1" type="github">
  <diagram name="PÃ¡gina-1" id="9LjOq6wX3i3CLjmXBUi2">
    <mxGraphModel dx="1434" dy="756" grid="1" gridSize="10" guides="1" tooltips="1" connect="1" arrows="1" fold="1" page="1" pageScale="1" pageWidth="827" pageHeight="1169" math="0" shadow="0">
      <root>
        <mxCell id="0" />
        <mxCell id="1" parent="0" />
        <mxCell id="Hq9nuAiOOd0oDFlO0SkD-9" value="" style="edgeStyle=orthogonalEdgeStyle;rounded=0;orthogonalLoop=1;jettySize=auto;html=1;" edge="1" parent="1" source="Hq9nuAiOOd0oDFlO0SkD-1" target="Hq9nuAiOOd0oDFlO0SkD-8">
          <mxGeometry relative="1" as="geometry" />
        </mxCell>
        <mxCell id="Hq9nuAiOOd0oDFlO0SkD-1" value="Pessoas" style="rounded=1;whiteSpace=wrap;html=1;" vertex="1" parent="1">
          <mxGeometry x="110" y="270" width="120" height="60" as="geometry" />
        </mxCell>
        <mxCell id="Hq9nuAiOOd0oDFlO0SkD-14" style="edgeStyle=orthogonalEdgeStyle;rounded=0;orthogonalLoop=1;jettySize=auto;html=1;exitX=1;exitY=0.5;exitDx=0;exitDy=0;" edge="1" parent="1" source="Hq9nuAiOOd0oDFlO0SkD-2" target="Hq9nuAiOOd0oDFlO0SkD-8">
          <mxGeometry relative="1" as="geometry" />
        </mxCell>
        <mxCell id="Hq9nuAiOOd0oDFlO0SkD-2" value="Contratos" style="rounded=1;whiteSpace=wrap;html=1;" vertex="1" parent="1">
          <mxGeometry x="110" y="400" width="120" height="60" as="geometry" />
        </mxCell>
        <mxCell id="Hq9nuAiOOd0oDFlO0SkD-3" value="Emails" style="rounded=1;whiteSpace=wrap;html=1;" vertex="1" parent="1">
          <mxGeometry x="364" y="100" width="120" height="60" as="geometry" />
        </mxCell>
        <mxCell id="Hq9nuAiOOd0oDFlO0SkD-4" value="SMS" style="rounded=1;whiteSpace=wrap;html=1;" vertex="1" parent="1">
          <mxGeometry x="230" y="100" width="120" height="60" as="geometry" />
        </mxCell>
        <mxCell id="Hq9nuAiOOd0oDFlO0SkD-10" style="edgeStyle=orthogonalEdgeStyle;rounded=0;orthogonalLoop=1;jettySize=auto;html=1;entryX=1;entryY=0.5;entryDx=0;entryDy=0;" edge="1" parent="1" source="Hq9nuAiOOd0oDFlO0SkD-5" target="Hq9nuAiOOd0oDFlO0SkD-8">
          <mxGeometry relative="1" as="geometry" />
        </mxCell>
        <mxCell id="Hq9nuAiOOd0oDFlO0SkD-5" value="Assinaturas" style="rounded=1;whiteSpace=wrap;html=1;" vertex="1" parent="1">
          <mxGeometry x="490" y="340" width="120" height="60" as="geometry" />
        </mxCell>
        <mxCell id="Hq9nuAiOOd0oDFlO0SkD-11" style="edgeStyle=orthogonalEdgeStyle;rounded=0;orthogonalLoop=1;jettySize=auto;html=1;exitX=0.25;exitY=0;exitDx=0;exitDy=0;" edge="1" parent="1" source="Hq9nuAiOOd0oDFlO0SkD-8" target="Hq9nuAiOOd0oDFlO0SkD-4">
          <mxGeometry relative="1" as="geometry" />
        </mxCell>
        <mxCell id="Hq9nuAiOOd0oDFlO0SkD-12" style="edgeStyle=orthogonalEdgeStyle;rounded=0;orthogonalLoop=1;jettySize=auto;html=1;exitX=0.75;exitY=0;exitDx=0;exitDy=0;entryX=0.5;entryY=1;entryDx=0;entryDy=0;" edge="1" parent="1" source="Hq9nuAiOOd0oDFlO0SkD-8" target="Hq9nuAiOOd0oDFlO0SkD-3">
          <mxGeometry relative="1" as="geometry" />
        </mxCell>
        <mxCell id="Hq9nuAiOOd0oDFlO0SkD-8" value="Mensageria" style="rounded=1;whiteSpace=wrap;html=1;" vertex="1" parent="1">
          <mxGeometry x="310" y="270" width="120" height="60" as="geometry" />
        </mxCell>
      </root>
    </mxGraphModel>
  </diagram>
</mxfile>
